<?xml version="1.0" encoding="utf-8"?>
<!-- Generator: Adobe Illustrator 20.1.0, SVG Export Plug-In . SVG Version: 6.00 Build 0)  -->
<svg version="1.1" id="Layer_2" xmlns="http://www.w3.org/2000/svg" xmlns:xlink="http://www.w3.org/1999/xlink" x="0px" y="0px"
	 viewBox="0 0 520.5 252.5" style="enable-background:new 0 0 520.5 252.5;" xml:space="preserve">
<style type="text/css">
	.st0{fill:#FFFFFF;}
</style>
<path class="st0" d="M362.9,15.6c-5-2-12.3,5.9-15.1,10.9c0,0-11.1,19-15.7,30.2s-8.9,25.4-11,28.7s-9.8,13.5-15.2,16.8
	c-5.4,3.2-12.5,7.9-24.1,9.8c0,0,0.3-5.6-0.2-6.6s-0.6-1.6-0.6-1.6s3.3-3.2,3.6-5.1s1.7-3.5-1.1-3.4s-7.9,4.1-7.9,4.1
	s-13.4,8.2-18.9,10.1c-5.5,1.9-13.9,6.1-17.6,6.8s-5.9,0.8-6.2,0.5s-0.1-7.4-0.2-10.5s0.2-5.4-2.2-4.7s-6.9,4.6-7.7,5.1
	s-0.9,0.4-0.2-0.8s4.2-8.2,3.6-10.7s-2.2-3.7-4.1-3.4s-7,5.7-8.9,7.4s-11.3,10.8-17,12.6s-9.2,2.8-11.1,1.7s-2.2-3.4-1.6-5.3
	s3.4-6.8,3.3-8.8s-0.5-4.8-3.5-4.8s-6.8,2-8.2,3.9s-6.4,8.4-8.8,9.6s-7.4,1.6-7.9,2.8s-0.2,3,1,3.4s4.9-0.2,5.4-0.9s1-1.5,1.2-0.8
	s0.4,3.7,1.5,4.2s4,1.2,7.4,0.7c2.6-0.4,4.7-2.8,4.7-2.8s1.4,2.8,3.6,3.3s3.7,1.1,6.6,0.5s13.8-6.1,16.9-8.9s11.9-10.8,12.4-11.4
	s1.1-1.4,1.3-0.4s-0.2,3.2-1.3,6.2s-5.6,11.6-5.8,12.6s-0.6,2.8,0.1,2.8c0,0,1.8,0,4.6-2.8s5.9-7,6.8-7.5s1.8-0.7,1.8,0.4
	s-1.5,6.5-1.1,8.1s1.1,3.8,4.4,4.1s12.7-2.5,17.2-4.1s26.9-12.1,27.6-12.2s1.3,2.1,1.1,3.8s-2,5.4-4,6.1s-4.9,1.8-5.6,1.5
	s-0.2-0.7,0.1-1.6s1.1-1.6,0.2-2.1s-1.6-0.8-2.8-0.3s-3.8,3.2-3.2,5.8s3.5,3.4,6.1,3.4s16.8-3.9,20.2-5.1s18.4-8.5,22-11.2
	s6.8-5.6,6.8-5.6l-8.8,20l-10.9,25.4c0,0-18.5,34.9-25.9,43.4s-20.4,27.8-37.2,30c-10.1,1.3-13.9-9.1-13.5-13.2s4-10.9,4.9-11.9
	c3.6,3.8,6,6.5,11,6.4s9.2-2.2,9.8-4.8c0.6-2.6,0.3-5.6-1.8-7c-2.2-1.4-6.4-3.2-9.8-3.1c-3.3,0.2-7.9,2-8.4,2.9l-2.3-3.8
	c0,0,8.4-6.8,10.5-10.4c2.1-3.7,3.8-7.3,3.8-11.4c0,0,0.8-21.8-37.5-26.7c-28.8-3.7-47.1,8.2-48.2,7.9c-1.2-0.2-2.2-3.6-2.8-9.9
	c-0.6-6.3-0.8-19.1,1.8-28.1c2.6-8.9,14.6-40.1,20.3-50.9c5.8-10.8,12.1-23.2,11.8-27.2c-0.2-4.1-0.5-5.1-4.3-3.9
	s-17.7,12.1-27.7,27.1s-19.1,39.7-20.3,41.4s-2.8,5.1-3.6,4.3c-0.8-0.8-0.8-5.2-0.4-6.8s13.8-31.2,17.2-38.3
	c3.4-7.2,9.8-16.5,11.2-19c1.3-2.5,4.4-8.5,3.2-9.9c-1.2-1.4-3.7-0.4-4.8,0.1c-1.2,0.5-12.8,11-17,18.3s-15.2,28-17.6,33.3
	s-16.2,30.4-25.6,39.2c-9.3,8.8-25.8,23-45.5,23.9c-5.7,0.3-20-1.8-25.2-15.8s-4.2-32.3,0.7-42.4C27.6,69.1,37.6,43,64.8,31.4
	C93,21.9,98.2,37.6,99,40c0.8,2.4,1.7,12.2,0.6,15.2c0,0-27.6,20.9-33.3,32.2s-6.7,11.8-5.8,19.2c0.8,7.3,7.8,4.2,8.4,3.7
	c0.7-0.5,17.5-10.4,26.8-26.9c6.2-11,9.1-21.8,9.7-26.8c0,0,13.3-8.7,15.8-10.2c4-2.4,9-3.9,9-5.3c0,0,0.3-0.7-2.5-0.2
	c0,0-3.5-0.8-21.7,10.7c0,0,0-11.7-3.8-17S93.7,21.1,81,21.8S50.2,33,38,45.8s-25,34.8-24.2,54.5c0.7,19.7,5.4,36.3,24.7,40.3
	c19.3,4,43.2-9.2,58-23.7s20.7-33.2,24.3-40.3c3.7-7.2,17.7-33.3,21.7-35.7c0,0-13,27.3-17,37.5s-6.5,23-1.2,24.7s7-5.2,9.7-10.7
	s18.2-34.5,20.5-37.5s14.7-23,19.5-22c4.8,1-5,14.8-5.8,17.2c-0.8,2.3-13.3,27.5-15.7,34c-2.3,6.5-9.3,26.3-10,36.2
	c-0.7,9.8,2.7,23.2,3.5,25.7c0,0-15.5,7.8-21,10.7c-5.5,2.8-43.7,24.3-55.2,46.3c-9.2,17.8,0.5,33,5.2,33.7c3.5,0,4.7-1.5,3.7-2.5
	s-2.2-1.3-3.2-1.3s-7.3-3.8-5.5-15.2c1.8-11.3,11.9-28.5,24.5-36.5c0,0,23.5-19,52.8-30.3c0,0,3.8,7.8,6,11.8s13.8,22.8,29.5,27.8
	s30.2,0.5,36.7-4c0,0,1.8,3,2.7,3.8c-0.5,1.4-5.3,6-6,11.5s-0.7,12.2,2.8,15.8c3.4,3.6,7.6,6.9,12.8,7s17.8-5,31-20.2
	c0,0,18-17.5,31.8-47.9l22.5-47.4c0,0,8.1-17,9.7-20.1c1.6-3.1,8.7-15,10.7-17.8s18.8-30.3,22-38.1
	C362.3,25.2,365.5,16.6,362.9,15.6z M176.9,109.7c-1.5,1.9-3,1.7-4.2,1.2s-0.8-1.3,0-4.2c0.8-2.8,5.8-7.8,8.2-8.7
	c2.3-0.8,2.3,1.2,2,2.8C182.6,102.5,177.3,109.2,176.9,109.7z M232.4,188.3c3-0.1,9,1,9.2,4.1s-2,4.1-6,3.8s-6.9-2-8.9-5.1
	C226.7,191.1,229.4,188.5,232.4,188.3z M90.6,81c-2.2,5.2-10.8,15.2-12.8,17.3s-9.2,11-11.8,5.7c-2.7-5.3,10.2-21.7,10.2-21.7
	c7-8.8,21.5-20,21.5-20C97.1,66.3,92.8,75.8,90.6,81z M220.2,177.7c0,0-1.6-1.9-1.4-3.8c-0.7-1.2-2-0.1-2.1,1.5s1.2,4.2,1.2,4.2
	s-11.1,8.3-20.2,8c-9.2-0.3-21.3-3-28.7-11.3c-7.3-8.3-15.8-22.2-17.2-27.2c0,0,10.7-7.5,19.8-8.9s21-2.9,36.1,1c0,0,22,5.1,22,22
	C229.7,163.2,229.9,173.3,220.2,177.7z M352.9,39.5c-1.7,4.2-15.5,28-21,32.5c0,0,6.3-19,11.2-29.3c4.8-10.3,11.9-20.5,16.3-22.7
	C363,18.3,354.6,35.3,352.9,39.5z M265.7,70.2c-0.6-0.4-2.9,1.1-5.1,1.2s-3.4-1.2-3.4-1.2s3.2-0.4,6-6s-2.7-6.5-2.7-6.5
	c-3.7-0.4-6.3,2.2-7.9,4.1s-1,4.1-1.2,6c-0.5,0.4-1.9,1.2-3.8,1.8s-5.4-0.2-5.4-0.2c0.4-2.4-0.9-5-1.9-5.6c-1-0.6-3.1-0.4-2.6-1.5
	c3.8-2.9,15.9-18.9,19.4-24.4c3.5-5.5,3-10.1,0-10.2c-3-0.1-5.5,3.1-8.4,6.1s-9.2,13.6-9.9,14s-5.6,0-6.9,0s-4.8-0.1-4.4-0.6
	s3.1-5.1,3.8-6.5s-1.4-3.2-3.2,0c-2.2,4-5.5,6.8-5.5,6.8s-1.2,0-2.3,0c-1,0-4.7,1.9-6,3s-0.4,2.2,0.9,2.4s4-1.6,4.9-1.6
	s-1.1,3.5-3.5,6.8s-9.5,9.5-11.5,10.5s-7.1,3.1-7.1,3.1c-0.6,1.7,1,2.3,2.5,2.1s6.3-2.8,6.3-2.8c0.3,4.8,2.9,6.8,8.2,5.2
	c5.3-1.5,15.8-8.6,15.8-8.6s-1.4,1.8-2.2,2.6s-0.6,2.2-0.2,3.2c0.4,0.9,1.8,0.8,2.5,0.7c0.8-0.1,3-6,4-6.7s2.3-0.2,3.2,0.8
	c0.8,0.9,0.2,5.1,0.4,5.4c0.2,0.3,5.3,0.6,5.3,0.6c3,0.1,6.4-1.8,8-2.5c0.5,0.6,3.8,2.3,5.2,2.4c1.4,0.1,4,0.2,6.8-0.9
	S266.4,70.6,265.7,70.2z M247.5,40.4c1.3-1.6,5.2-5.9,6.1-5.7s0,1.8-1.1,3.8s-6.4,10.3-9.6,12C242.9,50.6,246.2,42,247.5,40.4z
	 M232.5,61c-2,2.4-9.8,7.7-10.8,8.5c-1.1,0.8-7.2,3.1-8.5,1.8s0.8-4.5,1.2-5.8s10.4-14.7,11.2-15.2s2,0.2,4.2,0.6
	c2.2,0.3,7.5,0.6,7.5,0.6C237.4,53.3,234.5,58.6,232.5,61z M255.6,66.9c0,0,1.5-4.5,2.6-4.8s2,0.5,1.6,1.6
	C259.4,64.8,258.5,66.5,255.6,66.9z M470.1,83.2c0.4-0.5,8.2-11.1,20.1-28.8s14-25.8,14-28.5s0-4.9-3.3-4.5s-14.1,12.4-20,21.8
	s-13,28.6-15.5,36.5S456,95.1,456,95.1s-2,0-5.9,0.4s-6.8,3-11.5,7s-15.9,10.8-19.8,11.2s-5.6-0.8-7.6-2.1s-0.5-5.2,0.8-8.2
	s5-5.2,13.1-14.8C447.7,62,459,45.5,460.5,42.7s12.1-20.6,2.1-20.4S435.7,48.7,430,56.7s-19,36-23.2,43.6
	c-4.5,6.6-17,11.8-21.5,12.4s-14.6,0.9-14.6,0.9c2.2-0.8,9.2-8.2,10.8-11.8s1-9-5.5-9.1s-8.1,3.6-10.5,6.9s-3.1,9.6-3.1,9.6
	s-3.5,1.5-6.6,2.8s-10.9,1.9-11.9,1.6s-0.9-0.6-0.9-2.5s2.4-7.5,3.1-8.6c0.8-1.1,0.9-3.5-1.3-3.4s-7,5.5-9.5,7.8s-11.9,4.2-11.9,4.2
	s-2.9,3.4-1.9,4.5s2.9,0,6-1.1s7.8-4.6,9.6-4.8s-1.4,4.1-1.8,6.2s7,1.6,10.6,1.5s17-3.2,17-3.2c1,1,3.9,4.4,14.8,3
	c13.9-1.2,28.8-11.4,28.8-11.4s-2.8,6-2,9.2s7.9,2.1,12.1,1.6s17-5.8,17-5.8c-1.1,1.1-1.2,3.5,0.2,5.8s4.9,1.9,7.9,1.9
	s9.5-3.1,11.5-3.5s6.2,2.2,8.9,2.5s7.8-0.4,9.2-2s-0.8-2.4-0.8-2.4c-4.5,1.1-10,0.4-12-1s-2.1-4.6-1.5-6.8S469.7,83.7,470.1,83.2z
	 M486.5,43.2c5-7.6,11.4-17.5,13.8-17.9s0,3.8,0,3.8s-12,24.7-16.6,31.3c-3.1,4.5-9.8,12.9-12.6,14.7
	C471.1,75.1,481.5,50.8,486.5,43.2z M437.9,53.3c7-10.4,19.5-26.1,22.6-25.1s-0.8,8.8-1,9.1s-8.5,14.9-14.9,22.8
	s-29.5,35.2-29.5,35.2S430.9,63.7,437.9,53.3z M367.7,108.1c0,0,1-4.8,2.1-6.9s4.2-4.6,5.6-4.4s1.6,3,0,5.6s-4,5.6-5.9,5.6
	S367.7,108.1,367.7,108.1z M452.1,107c-0.3,1.3-2.8,4.3-5.3,6s-7.5,2.5-9.3,1.3s4.3-6.2,4.3-6.2c3.3-4.1,7.2-6.1,9.7-5.6
	C453.9,102.9,452.4,105.7,452.1,107z M367.6,71.3c-1.8,0.8-3.1,3-2.3,4.6s4.6,0.9,5.6,0s2.7-3.3,1.1-4.6S367.6,71.3,367.6,71.3z"/>
</svg>
